<?xml version="1.0" standalone="no"?><!DOCTYPE svg PUBLIC "-//W3C//DTD SVG 1.1//EN" "http://www.w3.org/Graphics/SVG/1.1/DTD/svg11.dtd"><svg t="1768562966447" class="icon" viewBox="0 0 3133 1024" version="1.1" xmlns="http://www.w3.org/2000/svg" p-id="34686" xmlns:xlink="http://www.w3.org/1999/xlink" width="611.9140625" height="200"><path d="M1456.88576 0.94208c0 8.02816-1.14688 17.2032-3.44064 27.52512-3.44064 17.2032-9.17504 41.28768-19.47648 67.66592-12.61568 26.35776-27.52512 55.02976-50.46272 82.5344v611.20512c105.49248 10.32192 220.16 14.90944 339.43552 18.35008V249.77408H1409.88416v-57.344h313.05728v-162.816c0-13.76256 18.35008-21.79072 37.84704-25.23136 10.32192-2.29376 22.9376-3.44064 37.82656-3.44064h89.45664v191.488h87.1424v57.344h-87.1424v558.44864c161.6896-1.14688 325.67296-9.17504 482.77504-21.79072V502.04672h-225.8944v-57.344h225.8944V300.2368H2044.02688V90.39872c0-18.35008 37.84704-25.23136 77.96736-28.672a881.5616 881.5616 0 0 1 77.98784 0v30.96576l170.86464-4.58752V29.61408c0-13.76256 18.35008-21.79072 37.84704-25.23136a197.14048 197.14048 0 0 1 38.99392-3.44064h89.43616v81.42848l260.3008-9.17504c51.6096 0 73.40032 30.94528 74.5472 68.8128l-11.4688 94.0032c-8.02816 18.35008-14.90944 36.70016-36.70016 36.70016h-5.7344v27.52512h-280.94464v144.4864h238.53056v57.344h-238.53056v269.45536c216.73984-21.79072 407.10144-50.44224 548.1472-81.408 12.61568-3.44064 25.23136-2.29376 37.84704-5.7344 45.8752 41.2672-126.1568 136.45824-176.59904 214.4256-26.37824 42.43456-49.31584 49.31584-106.65984 52.75648-508.0064 50.44224-1270.5792 98.6112-1761.3824-61.93152-128.45056-41.2672-223.62112-86.016-309.63712-130.72384-12.5952 12.61568-25.21088 21.79072-38.97344 34.4064-181.18656 150.2208-316.49792 157.0816-380.7232 160.54272-1.14688 1.14688-3.44064 1.14688-5.7344 1.14688h-18.35008C156.50816 954.9824 20.02944 875.86816 20.02944 719.93344c3.44064-134.16448 154.80832-223.62112 291.26656-217.88672 135.31136 5.7344 251.14624 57.344 341.72928 96.33792 18.35008 8.00768 37.84704 14.88896 59.63776 22.9376 88.28928-112.39424 121.5488-224.768 127.2832-246.55872H342.26176v-55.02976h235.08992V192.45056H250.53184V137.40032H577.3312V34.2016c0-13.76256 18.35008-21.79072 37.82656-25.23136A197.14048 197.14048 0 0 1 654.17216 5.5296h88.30976v131.8912H1078.4768v55.02976H742.48192v127.2832H1009.4592l-2.10944 11.85792a736.62464 736.62464 0 0 1-25.1904 95.92832c-21.8112 65.35168-61.93152 153.66144-130.74432 241.95072 65.37216 21.79072 137.6256 42.43456 211.00544 64.2048 47.0016 13.76256 98.6112 25.23136 154.80832 34.4064V292.20864c-30.96576 17.2032-59.63776 28.672-81.42848 37.84704-12.61568 5.7344-24.08448 10.32192-34.4064 13.76256l-22.9376-34.4064a1057.8944 1057.8944 0 0 0 112.39424-94.02368c56.19712-56.19712 113.52064-123.84256 113.52064-185.7536 0-13.78304 18.35008-21.8112 37.84704-25.25184a197.14048 197.14048 0 0 1 38.99392-3.44064h75.6736zM290.65216 577.7408h-2.29376c-76.82048 14.90944-161.6896 48.14848-161.6896 144.4864 0 124.98944 112.39424 159.37536 208.71168 159.37536 81.42848 0 185.77408-64.2048 295.85408-168.5504l18.35008-17.2032c-44.72832-24.08448-86.016-44.72832-130.72384-64.22528-49.31584-19.49696-73.40032-30.94528-99.75808-38.97344-36.70016-8.02816-81.42848-14.90944-128.45056-14.90944zM2705.69472 132.8128l-168.57088 5.7344v1.14688l-72.25344 2.29376-94.02368 3.44064v-1.14688l-170.86464 5.7344v94.02368h517.18144l11.4688-88.2688c0-12.63616-10.32192-22.9376-22.9376-22.9376z" fill="#173885" p-id="34687"></path><path d="M847.79008 798.3104l-0.02048-0.02048-16.13824-7.74144a2559.46752 2559.46752 0 0 1-62.79168-31.6416l-0.79872 0.79872c-37.35552-18.8416-78.7456-40.09984-121.4464-61.0304l2.99008-2.82624c-44.72832-24.08448-86.016-44.72832-130.72384-64.22528-49.31584-19.49696-73.40032-30.94528-99.75808-38.97344-36.70016-8.02816-81.42848-14.90944-128.45056-14.90944h-2.29376c-33.46432 6.49216-68.46464 16.46592-97.32096 33.62816-52.18304 14.21312-83.90656 37.94944-106.78272 84.09088-16.83456 33.9968-16.83456 112.76288 11.61216 162.44736 9.68704 16.91648 29.77792 36.61824 60.29312 59.14624L162.4064 921.6l7.86432 6.79936C80.32256 893.3376 20.02944 823.58272 20.02944 719.91296c3.44064-134.144 154.80832-223.60064 291.26656-217.86624 135.31136 5.7344 251.14624 57.344 341.72928 96.33792 18.35008 8.00768 37.84704 14.88896 59.63776 22.9376l138.752 48.128c65.37216 21.8112 137.6256 42.45504 211.00544 64.22528 47.0016 13.76256 98.6112 25.23136 154.80832 34.4064l166.25664 18.14528v3.64544c105.51296 10.32192 220.20096 14.90944 339.456 18.35008h165.13024c161.6896-1.14688 325.67296-9.17504 482.77504-21.79072l166.27712-14.90944c216.73984-21.79072 407.10144-50.44224 548.1472-81.408 12.61568-3.44064 25.23136-2.29376 37.84704-5.7344 45.8752 41.2672-126.1568 136.45824-176.59904 214.4256-26.37824 42.43456-49.31584 49.31584-106.65984 52.75648-508.0064 50.44224-1270.5792 98.6112-1761.3824-61.93152-19.33312-6.20544-37.90848-12.4928-55.808-18.8416-76.8-28.16-136.86784-55.23456-174.08-72.13056l-0.55296-0.22528-0.24576-0.12288z m1869.824-276.76672c4.58752 3.44064 9.17504 8.02816 14.90944 11.4688 9.17504 8.02816 18.35008 16.05632 30.96576 28.672a571.43296 571.43296 0 0 1 28.672 30.96576c3.44064 5.7344 8.02816 10.30144 12.61568 14.88896 8.02816 8.02816 8.02816 19.49696 0 27.52512l-12.61568 14.90944c-8.02816 9.17504-16.05632 18.35008-28.672 30.96576-12.61568 13.76256-22.9376 24.08448-30.96576 29.81888-5.7344 3.44064-10.32192 8.02816-14.90944 11.4688-9.17504 9.15456-18.35008 9.15456-27.52512 0-5.7344-3.44064-10.32192-8.02816-14.90944-11.4688-8.02816-5.7344-18.3296-16.05632-30.94528-29.81888-12.61568-12.61568-21.79072-21.79072-29.81888-30.96576a73.60512 73.60512 0 0 1-11.4688-14.90944c-8.02816-8.02816-8.02816-19.49696 0-27.52512l11.4688-14.88896c8.02816-9.17504 17.2032-18.35008 29.81888-30.96576a571.53536 571.53536 0 0 1 30.94528-28.672c4.58752-3.44064 9.17504-8.02816 14.90944-11.4688 9.17504-9.17504 18.35008-9.17504 27.52512 0zM1567.4368 294.5024c5.7344 5.7344 12.61568 10.32192 19.49696 16.05632 12.61568 10.32192 26.37824 22.9376 41.28768 37.84704 14.90944 14.88896 27.50464 28.672 37.82656 41.2672 5.7344 6.88128 10.32192 13.76256 16.05632 19.49696 10.32192 10.32192 10.32192 26.37824 0 35.55328l-14.90944 19.49696c-9.17504 12.5952-24.064 27.50464-38.97344 42.41408-16.05632 16.05632-29.81888 28.672-41.28768 37.84704l-19.49696 16.05632c-10.32192 10.32192-25.23136 10.32192-34.4064 0l-19.49696-16.05632c-12.61568-9.17504-27.52512-22.9376-42.41408-37.84704-14.90944-14.90944-28.672-29.81888-37.84704-42.41408l-16.05632-19.49696c-9.17504-9.17504-9.17504-25.23136 0-35.55328l16.05632-19.49696c9.17504-11.4688 21.79072-25.23136 37.84704-41.2672 14.88896-14.90944 29.7984-29.81888 42.41408-38.99392l19.49696-14.90944c9.17504-10.32192 24.08448-10.32192 34.4064 0z" fill="#E26813" p-id="34688"></path></svg>